PathFileType	4	(X/Y/Z)	C:\Users\WrightLab\Desktop\Jo\P5V17.trc
DataRate	CameraRate	NumFrames	NumMarkers	Units	OrigDataRate	OrigDataStartFrame	OrigNumFrames
100.00	100.00	       16	19	mm	100.00	80	       633
Frame#	Time	Headset_Front			Headset_Back			Headset_Left			Headset_Right			Left_Shoulder			Right_Shoulder			Sternum			C7			Left Elbow			Right Elbow			Left Wrist			Right Wrist			Left ASIS			Right ASIS			S2			Left Knee			Right Knee			Left Ankle			Right Ankle			
		X1	Y1	Z1	X2	Y2	Z2	X3	Y3	Z3	X4	Y4	Z4	X5	Y5	Z5	X6	Y6	Z6	X7	Y7	Z7	X8	Y8	Z8	X9	Y9	Z9	X10	Y10	Z10	X11	Y11	Z11	X12	Y12	Z12	X13	Y13	Z13	X14	Y14	Z14	X15	Y15	Z15	X16	Y16	Z16	X17	Y17	Z17	X18	Y18	Z18	X19	Y19	Z19	

80	0.790	-419.13544	1580.13232	-898.06268	-239.77354	955.01654	-1282.22461													-310.80264	1296.16467	-994.26776	-309.60287	1501.29297	-1191.99329				-573.64459	1170.03455	-1181.42664	-60.02620	1144.65625	-931.27814	-532.59375	1088.50891	-964.66394	-171.90404	905.11835	-997.41443	-447.62744	925.11133	-1027.75281				-145.21588	472.71271	-1047.97424	-473.49130	529.07745	-903.80219				-169.63277	63.51061	-1233.81506	
81	0.800	-421.07831	1580.32153	-894.67706	-241.02850	955.04675	-1278.54907							-5.27640	1205.69336	-1129.91467				-313.51767	1296.21033	-990.35211	-311.28308	1501.00183	-1188.37451				-575.73553	1169.84692	-1178.66479	-62.24284	1144.46338	-927.15790	-534.46283	1088.90955	-961.17847	-173.52292	903.55603	-993.08807	-450.88635	924.02960	-1024.23120				-147.79253	472.37906	-1045.06775	-476.75040	528.99927	-900.24121	-495.26752	109.72657	-994.00281	-169.63277	63.51061	-1233.81506	
82	0.810	-423.11188	1580.18372	-890.66064	-242.56274	954.44348	-1274.98242													-315.27838	1294.77344	-985.91742	-313.00427	1500.21228	-1183.64917				-577.45593	1169.09143	-1175.15527	-64.47561	1143.70837	-922.74329	-537.80042	1089.20020	-958.30762	-176.60716	903.57892	-989.86249	-452.71762	923.49524	-1021.15540				-150.89427	471.73907	-1043.13684	-479.47650	528.59332	-896.14636	-500.61584	107.02064	-985.33820	-170.42702	63.17796	-1234.55359	
83	0.820	-425.31061	1580.02417	-887.23688	-243.89415	953.46802	-1269.63574							-9.98268	1203.86426	-1119.78723				-318.59448	1295.31873	-982.17603	-314.94669	1500.04321	-1180.65063				-579.18933	1168.26050	-1171.12524	-67.01775	1142.70776	-918.76068	-538.99658	1087.66174	-953.98663	-178.36060	903.62964	-984.97681	-455.56198	923.70886	-1017.45081				-153.88864	471.19714	-1040.96289	-484.07532	529.08630	-892.84778				-170.42702	63.17796	-1234.55359	
84	0.830	-427.58362	1579.48682	-882.71643	-245.60988	953.32263	-1266.13611							-11.65441	1204.21069	-1117.84949				-320.25751	1294.88574	-977.72784	-316.89124	1499.12146	-1175.82251				-580.91132	1168.01697	-1167.90942	-69.39616	1142.18372	-914.38580	-541.99542	1087.36169	-950.10358	-181.12526	902.87201	-980.00598	-457.36465	923.01050	-1014.06903				-157.62233	470.33057	-1038.93750	-487.60657	529.71100	-889.51965	-515.48181	107.76620	-967.51312	-170.42702	63.17796	-1234.55359	
85	0.840	-429.91440	1579.11206	-878.38171	-247.08182	952.37836	-1260.80579							-14.16913	1201.85754	-1109.08411				-323.72620	1293.35046	-973.84576	-318.97122	1498.84436	-1172.13989				-583.28076	1167.39563	-1163.72595	-71.73292	1141.21558	-909.77679	-544.70044	1087.37439	-945.94781	-183.95357	902.22064	-976.21423	-461.01508	922.71484	-1010.14154				-160.04086	469.90668	-1036.96179	-492.32654	529.22742	-886.35962	-523.55469	104.01212	-957.93353	-171.68491	62.26181	-1235.78564	
86	0.850	-432.20734	1579.01868	-874.39685	-248.98064	952.29669	-1257.33545							-16.23901	1201.64832	-1105.82861				-325.31931	1293.06702	-969.50586	-321.05450	1498.08215	-1167.06409				-585.83167	1167.12317	-1160.29187	-73.58880	1140.89099	-904.47498	-547.55054	1086.85815	-941.52808	-186.75000	901.92255	-971.03900	-463.23761	922.39685	-1005.87463				-163.14078	469.20999	-1034.98486	-495.67981	529.66858	-883.42230	-531.70862	104.98955	-947.62811	-171.68491	62.26181	-1235.78564	
87	0.860	-434.52124	1578.67993	-869.99707	-250.80940	951.27856	-1251.70581							-19.89633	1201.83508	-1103.41211				-328.87686	1293.14612	-964.97699	-323.46710	1497.48804	-1163.33423				-588.83173	1166.72717	-1155.90247	-76.28941	1140.16077	-899.68378	-550.65009	1086.00159	-937.16199	-189.42270	901.57672	-966.27423	-466.61813	921.70007	-1001.90198				-166.54268	468.74301	-1032.61877	-499.86862	528.61505	-879.77930	-537.72437	103.98426	-938.55969	-171.78484	62.75422	-1235.79260	
88	0.870	-436.99036	1578.09583	-865.19000	-253.02068	951.07227	-1247.94458							-21.70907	1199.87134	-1095.38293				-331.58664	1292.79138	-960.81824	-325.90302	1496.87781	-1158.82642				-590.50262	1166.29968	-1151.93970	-79.01936	1139.23462	-895.14178	-553.73077	1086.27722	-933.90167	-192.76419	899.82318	-961.86658	-469.48123	921.01117	-996.83783				-169.78767	468.50095	-1030.71423	-503.77316	528.08575	-877.07367				-171.78484	62.75422	-1235.79260	
89	0.880	-439.52197	1577.82751	-860.99530	-255.37389	949.98523	-1242.58569							-24.84537	1199.34753	-1091.05273				-334.18002	1291.43030	-955.31824	-328.27292	1496.34778	-1153.82117				-593.51404	1165.63196	-1147.46399	-81.93179	1138.35168	-890.36969	-556.32184	1085.46204	-929.35419	-196.19353	899.54993	-956.68182	-471.80988	920.66992	-992.62537				-172.14999	468.15204	-1029.31238	-508.01566	527.07648	-873.70374	-553.09381	102.97260	-919.63623	-172.13783	62.98248	-1236.05981	
90	0.890	-442.12033	1577.48145	-856.14740	-257.90649	949.45428	-1238.26611							-26.92331	1197.34167	-1083.21777				-338.26254	1292.03784	-950.80170	-331.04846	1495.63647	-1149.58569				-596.07599	1165.08936	-1142.73267	-84.29111	1138.04260	-884.58649	-559.14874	1085.04822	-924.60132	-198.83130	899.09326	-952.08179	-475.22205	920.23090	-987.49554				-176.78384	467.48056	-1026.32837	-510.99136	525.43787	-870.31891	-560.51727	100.02120	-915.98572	-172.07733	65.39635	-1233.10449	
91	0.900	-444.82474	1577.12207	-851.92859	-260.50131	948.83521	-1233.11633							-30.84745	1197.54700	-1080.65552				-340.67139	1291.09778	-946.30450	-333.83978	1495.16663	-1145.43591				-599.59613	1165.20081	-1138.40601	-87.89275	1137.23315	-879.52557	-563.42023	1085.20837	-919.30994	-202.10909	898.72363	-946.91785	-477.55716	919.31085	-982.46509				-180.32591	466.09860	-1024.87622	-514.27844	524.14404	-867.17590	-569.36646	103.38564	-901.10474	-173.00618	66.45392	-1234.41907	
92	0.910	-447.59372	1576.46436	-846.93530	-263.51883	947.22858	-1226.97473							-34.82248	1197.77246	-1077.98645				-343.99426	1291.34180	-941.12048	-336.67474	1494.24829	-1140.10168				-602.30194	1164.82031	-1134.12830	-90.62394	1136.31201	-874.33234	-566.54266	1084.28613	-915.38165	-206.26471	898.12506	-941.92365	-480.94357	919.76886	-976.70697				-183.19487	465.92664	-1022.61047	-518.66156	522.87189	-863.42334	-574.79181	100.78001	-893.35925	-173.00618	66.45392	-1234.41907	
93	0.920	-450.36557	1576.11328	-841.95551	-266.32968	946.62390	-1221.22766							-36.56807	1195.05359	-1068.35449				-348.16879	1290.92175	-935.69104	-339.70737	1493.41248	-1135.16101				-605.27997	1163.91614	-1128.74951	-93.86296	1135.75159	-870.03192	-569.54785	1083.97803	-909.50269	-208.83447	897.67883	-936.39722	-484.45053	919.07831	-970.99103				-187.27577	465.21664	-1020.51703	-522.19092	520.47455	-859.59955	-581.71759	99.67750	-891.82147	-173.00618	66.45392	-1234.41907	
94	0.930	-453.32605	1575.51331	-836.85724	-269.61481	945.54535	-1215.91675							-40.68291	1195.20667	-1065.98047				-350.71484	1289.40454	-929.73730	-342.76233	1492.57178	-1129.72070				-609.01965	1163.76135	-1123.91431	-96.94451	1135.02954	-864.53479	-572.89716	1083.41541	-905.20135	-212.13240	897.12354	-930.94232	-488.68216	919.05609	-965.17389				-190.64438	465.19827	-1019.29071	-525.95697	519.36407	-856.13159	-586.15210	98.64599	-884.02344	-173.00618	66.45392	-1234.41907	
95	0.940	-456.16006	1575.15356	-831.57916	-273.12549	944.56854	-1210.32373													-354.48434	1289.37549	-924.31812	-346.01224	1491.86389	-1124.97498				-612.38501	1163.80127	-1118.94800	-100.50241	1134.89551	-858.14166	-575.96100	1082.77734	-899.13971	-215.84555	895.87372	-925.95032	-492.14273	918.07300	-958.99310				-194.87640	463.97861	-1017.20648	-528.77600	517.73871	-853.07471	-593.29840	98.21333	-879.05872	-171.59238	67.81147	-1231.15625	
